<svg width="108" height="58" viewBox="0 0 108 58" fill="none" xmlns="http://www.w3.org/2000/svg">
<path d="M70 1L62.5 26.5L55.5 13L49 26.5L40 1L23.5 52L16.5 38.5L10 52L1 26.5" stroke="black" stroke-width="2" stroke-linecap="round" stroke-linejoin="round"/>
<path d="M77.815 13.878C76.539 13.878 75.553 14.4 74.973 15.27C74.335 16.227 74.335 17.59 74.335 19.069C74.335 20.548 74.335 21.911 74.973 22.868C75.553 23.738 76.539 24.26 77.815 24.26C79.091 24.26 80.077 23.738 80.657 22.868C81.295 21.911 81.295 20.548 81.295 19.069C81.295 17.59 81.295 16.227 80.657 15.27C80.077 14.4 79.091 13.878 77.815 13.878ZM77.815 11.964C79.874 11.964 81.556 12.892 82.484 14.429C83.325 15.821 83.325 17.416 83.325 19.069C83.325 20.722 83.325 22.317 82.484 23.709C81.556 25.246 79.874 26.174 77.815 26.174C75.756 26.174 74.074 25.246 73.146 23.709C72.305 22.317 72.305 20.722 72.305 19.069C72.305 17.416 72.305 15.821 73.146 14.429C74.074 12.892 75.756 11.964 77.815 11.964ZM92.0171 11.964C92.5681 11.964 93.1771 12.051 93.7861 12.254L93.2641 14.11C92.8871 13.965 92.4521 13.878 91.8721 13.878C90.7701 13.878 89.9291 14.284 89.4071 14.893C88.5371 15.908 88.5371 17.503 88.5371 19.069V26H86.5071V12.138H88.5371V13.733C89.3201 12.631 90.5961 11.964 92.0171 11.964ZM96.5891 6.686H98.6191V19.359L104.042 12.138H106.42L101.577 18.431L106.855 26H104.506L100.243 19.823L98.6191 21.998V26H96.5891V6.686Z" fill="black"/>
<path d="M35.045 47.824C35.045 48.52 35.393 49.216 35.915 49.651C36.437 50.086 37.191 50.26 37.829 50.26C39.076 50.26 40.062 49.68 40.584 48.897C41.222 47.94 41.222 46.838 41.222 45.359H38.844C37.858 45.359 36.843 45.359 36.002 45.968C35.48 46.345 35.045 46.954 35.045 47.824ZM38.177 37.964C39.917 37.964 41.222 38.515 42.092 39.501C43.252 40.806 43.252 42.517 43.252 43.764V52H41.222V50.347C40.468 51.507 39.105 52.174 37.684 52.174C36.669 52.174 35.596 51.913 34.668 51.188C33.74 50.463 33.015 49.245 33.015 47.911C33.015 46.374 33.798 45.214 34.726 44.547C36.089 43.561 37.713 43.561 38.844 43.561H41.222C41.222 42.662 41.222 41.502 40.526 40.719C40.033 40.168 39.279 39.878 38.177 39.878C36.901 39.878 35.596 40.168 34.378 40.632L33.769 38.805C35.103 38.312 36.553 37.964 38.177 37.964ZM51.7952 52H49.8232L45.0092 38.138H47.1552L50.8382 49.361L54.4922 38.138H56.6092L51.7952 52ZM66.757 43.851C66.757 42.807 66.583 41.763 65.974 40.98C65.365 40.197 64.379 39.878 63.422 39.878C62.465 39.878 61.479 40.197 60.87 40.98C60.261 41.763 60.087 42.807 60.087 43.851H66.757ZM63.422 37.964C65.162 37.964 66.583 38.66 67.453 39.675C68.671 41.125 68.787 42.865 68.787 45.069V45.649H60.087C60.087 46.49 60.087 48.201 60.957 49.216C61.479 49.825 62.32 50.26 63.712 50.26C65.046 50.26 66.293 49.941 67.395 49.332L68.207 51.072C66.786 51.826 65.22 52.174 63.712 52.174C61.798 52.174 60.348 51.536 59.391 50.434C58.057 48.897 58.057 46.809 58.057 45.069C58.057 43.213 58.057 41.241 59.391 39.675C60.261 38.66 61.682 37.964 63.422 37.964Z" fill="black"/>
</svg>
